<svg width="23" height="23" viewBox="0 0 23 23" fill="none" xmlns="http://www.w3.org/2000/svg">
<path d="M4.73948 19.1433C5.13829 19.5329 5.79088 19.5329 6.17154 19.1523L11.7457 13.5781L17.32 19.1523C17.7097 19.5329 18.3622 19.542 18.752 19.1433C19.1417 18.7534 19.1417 18.1009 18.7611 17.7203L13.1869 12.137L18.7611 6.56278C19.1417 6.1821 19.1508 5.52045 18.752 5.13978C18.3532 4.75003 17.7097 4.75003 17.32 5.13072L11.7457 10.7049L6.17154 5.13072C5.79088 4.75003 5.12923 4.74097 4.73948 5.13072C4.34974 5.52951 4.3588 6.19117 4.73948 6.56278L10.3137 12.137L4.73948 17.7203C4.3588 18.0918 4.34974 18.7625 4.73948 19.1433Z" fill="black"/>
</svg>
