<svg width="94" height="33" viewBox="0 0 94 33" fill="none" xmlns="http://www.w3.org/2000/svg">
<g clip-path="url(#clip0_6_1399)">
<path d="M2.68016 2.17829L20.3868 0.870597C22.5618 0.683937 23.1207 0.809799 24.4882 1.8039L30.1404 5.78563C31.0727 6.47041 31.3831 6.65707 31.3831 7.40265V29.2398C31.3831 30.6083 30.886 31.4178 29.1463 31.5416L8.58416 32.7863C7.27856 32.8482 6.65669 32.6615 5.97296 31.7901L1.81082 26.378C1.06416 25.3818 0.754822 24.6362 0.754822 23.7648V4.35421C0.754822 3.23532 1.25189 2.30202 2.68016 2.17829Z" fill="white"/>
<path fill-rule="evenodd" clip-rule="evenodd" d="M20.3868 0.870597L2.68016 2.17829C1.25189 2.30202 0.754822 3.23532 0.754822 4.35421V23.7648C0.754822 24.6362 1.06416 25.3818 1.81082 26.378L5.97296 31.7901C6.65669 32.6615 7.27856 32.8482 8.58416 32.7863L29.1463 31.5416C30.885 31.4178 31.3831 30.6083 31.3831 29.2398V7.40265C31.3831 6.69547 31.1036 6.49174 30.2812 5.88803C30.2339 5.85394 30.1866 5.81981 30.1394 5.78563L24.4882 1.8039C23.1207 0.809799 22.5618 0.683937 20.3868 0.870597ZM9.04922 7.04532C7.37029 7.15839 6.98949 7.18399 6.03589 6.40855L3.61136 4.48008C3.36496 4.23048 3.48869 3.91903 4.10949 3.85716L21.1314 2.61347C22.5607 2.48868 23.3052 2.98679 23.8642 3.42198L26.7836 5.53711C26.9084 5.60004 27.2188 5.97229 26.8455 5.97229L9.26682 7.03039L9.04922 7.04532ZM7.09189 29.0531V10.5151C7.09189 9.7055 7.34042 9.33218 8.08496 9.26925L28.2748 8.08742C28.9596 8.02556 29.269 8.46074 29.269 9.26925V27.6836C29.269 28.4931 29.1442 29.1779 28.0263 29.2398L8.70576 30.3597C7.58789 30.4216 7.09189 30.0494 7.09189 29.0531ZM26.1639 11.5092C26.2876 12.0692 26.1639 12.6291 25.6039 12.6931L24.6727 12.8777V26.5647C23.8642 26.9999 23.1196 27.2484 22.4978 27.2484C21.5036 27.2484 21.2551 26.9369 20.5106 26.0047L14.421 16.4242V25.6932L16.3474 26.1295C16.3474 26.1295 16.3474 27.2494 14.7932 27.2494L10.5084 27.498C10.3836 27.2484 10.5084 26.6265 10.9426 26.5028L12.0615 26.1924V13.9368L10.5084 13.811C10.3836 13.251 10.694 12.4425 11.5644 12.3795L16.1618 12.0702L22.4978 21.7744V13.1891L20.8828 13.0035C20.758 12.3177 21.2551 11.8196 21.8759 11.7588L26.1639 11.5092Z" fill="black"/>
<path d="M44.9511 23.4643V15.0273H45.0972L51.1815 23.4643H53.0972V11.0658H50.9671V19.4943H50.8209L44.7367 11.0658H42.8135V23.4633H44.9521L44.9511 23.4643ZM59.1175 23.6542C61.9281 23.6542 63.638 21.8153 63.638 18.7648C63.638 15.7227 61.9196 13.8753 59.1175 13.8753C56.3249 13.8753 54.598 15.7313 54.598 18.7648C54.598 21.8153 56.2993 23.6542 59.1175 23.6542ZM59.1175 21.8665C57.6316 21.8665 56.7815 20.7327 56.7815 18.7648C56.7815 16.8054 57.6316 15.663 59.1175 15.663C60.5959 15.663 61.446 16.8054 61.446 18.7648C61.446 20.7327 60.6044 21.8665 59.1175 21.8665ZM65.5847 11.7623V14.1249H64.0988V15.8262H65.5847V20.9556C65.5847 22.7774 66.4444 23.5081 68.6012 23.5081C69.0129 23.5081 69.4087 23.4654 69.718 23.4046V21.7375C69.4599 21.7631 69.2967 21.7801 68.9959 21.7801C68.1031 21.7801 67.7073 21.3684 67.7073 20.4404V15.8262H69.718V14.1249H67.7073V11.7613L65.5847 11.7623ZM70.9948 23.4643H73.1175V14.0641H70.9948V23.4643ZM72.0519 12.51C72.7559 12.51 73.3233 11.9415 73.3233 11.229C73.3233 10.5154 72.7569 9.93945 72.0519 9.93945C71.3564 9.93945 70.7804 10.5154 70.7804 11.229C70.7804 11.9415 71.3564 12.509 72.0519 12.509V12.51ZM78.9404 23.6542C81.75 23.6542 83.4599 21.8153 83.4599 18.7648C83.4599 15.7227 81.7415 13.8753 78.9404 13.8753C76.1468 13.8753 74.4199 15.7313 74.4199 18.7648C74.4199 21.8153 76.1212 23.6542 78.9404 23.6542ZM78.9404 21.8665C77.4535 21.8665 76.6023 20.7327 76.6023 18.7648C76.6023 16.8054 77.4535 15.663 78.9404 15.663C80.4177 15.663 81.2689 16.8054 81.2689 18.7648C81.2689 20.7327 80.4263 21.8665 78.9404 21.8665ZM84.7281 23.4643H86.8593V17.9915C86.8593 16.608 87.6593 15.7313 88.9297 15.7313C90.2279 15.7313 90.8284 16.4534 90.8284 17.888V23.4643H92.9607V17.3813C92.9607 15.1382 91.8172 13.8753 89.7212 13.8753C88.3196 13.8753 87.3745 14.5196 86.9276 15.5681H86.7815V14.0641H84.7281V23.4643Z" fill="#121212"/>
</g>
<defs>
<clipPath id="clip0_6_1399">
<rect width="92.8" height="32" fill="white" transform="translate(0.754822 0.796875)"/>
</clipPath>
</defs>
</svg>
