<svg width="88" height="31" viewBox="0 0 88 31" fill="none" xmlns="http://www.w3.org/2000/svg">
<g clip-path="url(#clip0_6_1304)">
<path d="M2.55982 1.64967L19.1598 0.42367C21.1988 0.24867 21.7228 0.36667 23.0048 1.29867L28.3038 5.03167C29.1778 5.67367 29.4688 5.84867 29.4688 6.54767V27.0207C29.4688 28.3037 29.0028 29.0627 27.3718 29.1787L8.09482 30.3457C6.87082 30.4037 6.28782 30.2287 5.64682 29.4117L1.74482 24.3377C1.04482 23.4037 0.754822 22.7047 0.754822 21.8877V3.68967C0.754822 2.64067 1.22082 1.76567 2.55982 1.64967Z" fill="white"/>
<path fill-rule="evenodd" clip-rule="evenodd" d="M19.1598 0.42367L2.55982 1.64967C1.22082 1.76567 0.754822 2.64067 0.754822 3.68967V21.8877C0.754822 22.7047 1.04482 23.4037 1.74482 24.3377L5.64682 29.4117C6.28782 30.2287 6.87082 30.4037 8.09482 30.3457L27.3718 29.1787C29.0018 29.0627 29.4688 28.3037 29.4688 27.0207V6.54767C29.4688 5.88467 29.2068 5.69367 28.4358 5.12767C28.3915 5.09571 28.3471 5.06371 28.3028 5.03167L23.0048 1.29867C21.7228 0.36667 21.1988 0.24867 19.1598 0.42367ZM8.53082 6.21267C6.95682 6.31867 6.59982 6.34267 5.70582 5.61567L3.43282 3.80767C3.20182 3.57367 3.31782 3.28167 3.89982 3.22367L19.8578 2.05767C21.1978 1.94067 21.8958 2.40767 22.4198 2.81567L25.1568 4.79867C25.2738 4.85767 25.5648 5.20667 25.2148 5.20667L8.73482 6.19867L8.53082 6.21267ZM6.69582 26.8457V9.46567C6.69582 8.70667 6.92882 8.35667 7.62682 8.29767L26.5548 7.18967C27.1968 7.13167 27.4868 7.53967 27.4868 8.29767V25.5617C27.4868 26.3207 27.3698 26.9627 26.3218 27.0207L8.20882 28.0707C7.16082 28.1287 6.69582 27.7797 6.69582 26.8457ZM24.5758 10.3977C24.6918 10.9227 24.5758 11.4477 24.0508 11.5077L23.1778 11.6807V24.5127C22.4198 24.9207 21.7218 25.1537 21.1388 25.1537C20.2068 25.1537 19.9738 24.8617 19.2758 23.9877L13.5668 15.0057V23.6957L15.3728 24.1047C15.3728 24.1047 15.3728 25.1547 13.9158 25.1547L9.89882 25.3877C9.78182 25.1537 9.89882 24.5707 10.3058 24.4547L11.3548 24.1637V12.6737L9.89882 12.5557C9.78182 12.0307 10.0728 11.2727 10.8888 11.2137L15.1988 10.9237L21.1388 20.0217V11.9727L19.6248 11.7987C19.5078 11.1557 19.9738 10.6887 20.5558 10.6317L24.5758 10.3977Z" fill="black"/>
<path d="M42.1888 21.6058V13.6958H42.3258L48.0298 21.6058H49.8258V9.98178H47.8288V17.8838H47.6918L41.9878 9.98178H40.1848V21.6048H42.1898L42.1888 21.6058ZM55.4698 21.7838C58.1048 21.7838 59.7078 20.0598 59.7078 17.1998C59.7078 14.3478 58.0968 12.6158 55.4698 12.6158C52.8518 12.6158 51.2328 14.3558 51.2328 17.1998C51.2328 20.0598 52.8278 21.7838 55.4698 21.7838ZM55.4698 20.1078C54.0768 20.1078 53.2798 19.0448 53.2798 17.1998C53.2798 15.3628 54.0768 14.2918 55.4698 14.2918C56.8558 14.2918 57.6528 15.3628 57.6528 17.1998C57.6528 19.0448 56.8638 20.1078 55.4698 20.1078ZM61.5328 10.6348V12.8498H60.1398V14.4448H61.5328V19.2538C61.5328 20.9618 62.3388 21.6468 64.3608 21.6468C64.7468 21.6468 65.1178 21.6068 65.4078 21.5498V19.9868C65.1658 20.0108 65.0128 20.0268 64.7308 20.0268C63.8938 20.0268 63.5228 19.6408 63.5228 18.7708V14.4448H65.4078V12.8498H63.5228V10.6338L61.5328 10.6348ZM66.6048 21.6058H68.5948V12.7928H66.6048V21.6058ZM67.5958 11.3358C68.2558 11.3358 68.7878 10.8028 68.7878 10.1348C68.7878 9.46578 68.2568 8.92578 67.5958 8.92578C66.9438 8.92578 66.4038 9.46578 66.4038 10.1348C66.4038 10.8028 66.9438 11.3348 67.5958 11.3348V11.3358ZM74.0538 21.7838C76.6878 21.7838 78.2908 20.0598 78.2908 17.1998C78.2908 14.3478 76.6798 12.6158 74.0538 12.6158C71.4348 12.6158 69.8158 14.3558 69.8158 17.1998C69.8158 20.0598 71.4108 21.7838 74.0538 21.7838ZM74.0538 20.1078C72.6598 20.1078 71.8618 19.0448 71.8618 17.1998C71.8618 15.3628 72.6598 14.2918 74.0538 14.2918C75.4388 14.2918 76.2368 15.3628 76.2368 17.1998C76.2368 19.0448 75.4468 20.1078 74.0538 20.1078ZM79.4798 21.6058H81.4778V16.4748C81.4778 15.1778 82.2278 14.3558 83.4188 14.3558C84.6358 14.3558 85.1988 15.0328 85.1988 16.3778V21.6058H87.1978V15.9028C87.1978 13.7998 86.1258 12.6158 84.1608 12.6158C82.8468 12.6158 81.9608 13.2198 81.5418 14.2028H81.4048V12.7928H79.4798V21.6058Z" fill="#121212"/>
</g>
<defs>
<clipPath id="clip0_6_1304">
<rect width="87" height="30" fill="white" transform="translate(0.754822 0.355469)"/>
</clipPath>
</defs>
</svg>
