<svg width="163" height="31" viewBox="0 0 163 31" fill="none" xmlns="http://www.w3.org/2000/svg">
<g clip-path="url(#clip0_6_1309)">
<path fill-rule="evenodd" clip-rule="evenodd" d="M15.7548 7.97647C18.1598 7.97647 18.4438 7.98747 19.3898 8.02947C20.2688 8.06847 20.7438 8.21547 21.0598 8.33847C21.4778 8.50047 21.7808 8.69747 22.0938 9.00947C22.4098 9.32547 22.6038 9.62447 22.7688 10.0435C22.8918 10.3595 23.0398 10.8385 23.0778 11.7135C23.1198 12.6625 23.1308 12.9475 23.1308 15.3485C23.1308 17.7495 23.1198 18.0375 23.0778 18.9835C23.0388 19.8625 22.8918 20.3375 22.7688 20.6535C22.6247 21.0437 22.3955 21.3969 22.0978 21.6875C21.7818 22.0035 21.4828 22.1975 21.0638 22.3625C20.7478 22.4855 20.2688 22.6335 19.3938 22.6715C18.4448 22.7135 18.1598 22.7245 15.7588 22.7245C13.3578 22.7245 13.0698 22.7135 12.1238 22.6715C11.2448 22.6325 10.7698 22.4855 10.4538 22.3625C10.0636 22.2183 9.71041 21.9891 9.41982 21.6915C9.12107 21.401 8.89052 21.0478 8.74482 20.6575C8.62182 20.3415 8.47382 19.8625 8.43582 18.9875C8.39382 18.0385 8.38282 17.7535 8.38282 15.3525C8.38282 12.9515 8.39382 12.6635 8.43582 11.7175C8.47482 10.8385 8.62182 10.3635 8.74482 10.0475C8.90682 9.62947 9.10382 9.32647 9.41582 9.01347C9.73182 8.69747 10.0308 8.50347 10.4498 8.33847C10.7658 8.21547 11.2448 8.06747 12.1198 8.02947C13.0658 7.98747 13.3498 7.97647 15.7548 7.97647ZM15.7548 6.35547C13.3118 6.35547 13.0058 6.36647 12.0458 6.40847C11.0898 6.45047 10.4318 6.60547 9.86282 6.82647C9.26101 7.0524 8.71617 7.40778 8.26682 7.86747C7.80787 8.31626 7.45258 8.85995 7.22582 9.46047C7.00482 10.0335 6.84982 10.6875 6.80782 11.6435C6.76582 12.6065 6.75482 12.9125 6.75482 15.3555C6.75482 17.7985 6.76582 18.1045 6.80782 19.0645C6.84982 20.0205 7.00482 20.6785 7.22582 21.2475C7.45176 21.8493 7.80713 22.3941 8.26682 22.8435C8.71576 23.3013 9.25949 23.6552 9.85982 23.8805C10.4328 24.1015 11.0868 24.2565 12.0428 24.2985C13.0028 24.3405 13.3088 24.3515 15.7518 24.3515C18.1948 24.3515 18.5008 24.3405 19.4608 24.2985C20.4168 24.2565 21.0748 24.1015 21.6438 23.8805C22.2438 23.6546 22.7875 23.3007 23.2368 22.8435C23.7368 22.3445 24.0458 21.8415 24.2738 21.2505C24.4948 20.6775 24.6498 20.0235 24.6918 19.0675C24.7338 18.1075 24.7448 17.8015 24.7448 15.3585C24.7448 12.9155 24.7338 12.6095 24.6918 11.6495C24.6498 10.6935 24.4948 10.0355 24.2738 9.46647C24.0571 8.86152 23.7048 8.3142 23.2438 7.86647C22.7949 7.40866 22.2512 7.05471 21.6508 6.82947C21.0778 6.60847 20.4238 6.45347 19.4678 6.41147C18.5048 6.36547 18.1988 6.35547 15.7548 6.35547ZM15.7548 10.7325C14.5289 10.733 13.3533 11.2202 12.4865 12.0871C11.6196 12.954 11.1324 14.1295 11.1318 15.3555C11.1324 16.5814 11.6196 17.757 12.4865 18.6238C13.3533 19.4907 14.5289 19.9779 15.7548 19.9785C16.9808 19.9779 18.1563 19.4907 19.0232 18.6238C19.8901 17.757 20.3773 16.5814 20.3778 15.3555C20.3773 14.1295 19.8901 12.954 19.0232 12.0871C18.1563 11.2202 16.9808 10.733 15.7548 10.7325ZM15.7548 18.3545C15.3563 18.3617 14.9603 18.2895 14.5901 18.1421C14.2198 17.9946 13.8826 17.7748 13.5982 17.4956C13.3138 17.2163 13.0879 16.8832 12.9337 16.5157C12.7795 16.1481 12.7001 15.7535 12.7001 15.355C12.7001 14.9564 12.7795 14.5618 12.9337 14.1943C13.0879 13.8267 13.3138 13.4936 13.5982 13.2144C13.8826 12.9351 14.2198 12.7153 14.5901 12.5679C14.9603 12.4204 15.3563 12.3482 15.7548 12.3555C16.5505 12.3555 17.3135 12.6715 17.8761 13.2341C18.4388 13.7968 18.7548 14.5598 18.7548 15.3555C18.7548 16.1511 18.4388 16.9142 17.8761 17.4768C17.3135 18.0394 16.5505 18.3555 15.7548 18.3555V18.3545ZM20.5608 11.6285C20.847 11.6285 21.1214 11.5148 21.3238 11.3124C21.5261 11.1101 21.6398 10.8356 21.6398 10.5495C21.6398 10.2633 21.5261 9.98885 21.3238 9.7865C21.1214 9.58415 20.847 9.47047 20.5608 9.47047C20.2747 9.47047 20.0002 9.58415 19.7979 9.7865C19.5955 9.98885 19.4818 10.2633 19.4818 10.5495C19.4818 10.8356 19.5955 11.1101 19.7979 11.3124C20.0002 11.5148 20.2747 11.6285 20.5608 11.6285Z" fill="black" fill-opacity="0.6"/>
</g>
<g clip-path="url(#clip1_6_1309)">
<path d="M58.5326 10.247C57.8141 10.5707 57.0395 10.7861 56.2305 10.882C57.059 10.3824 57.6931 9.58983 57.995 8.64714C57.2203 9.10864 56.3601 9.44708 55.4485 9.62798C54.7154 8.84282 53.6731 8.35547 52.5195 8.35547C50.3043 8.35547 48.5105 10.1633 48.5105 12.3933C48.5105 12.7084 48.5447 13.016 48.6131 13.3126C45.2797 13.1428 42.3239 11.5355 40.3456 9.09018C40.0022 9.68582 39.8031 10.3824 39.8031 11.1208C39.8031 12.5213 40.5093 13.7594 41.5858 14.4818C40.9285 14.4621 40.3102 14.2775 39.7676 13.9784V14.0289C39.7676 15.9869 41.1496 17.6212 42.9862 17.9904C42.6501 18.0828 42.2946 18.1332 41.928 18.1332C41.6689 18.1332 41.4197 18.1061 41.1716 18.0605C41.6836 19.6642 43.1646 20.8332 44.918 20.8677C43.5434 21.952 41.8168 22.598 39.935 22.598C39.61 22.598 39.2935 22.5784 38.9771 22.5403C40.7562 23.6897 42.864 24.3555 45.1282 24.3555C52.5049 24.3555 56.5421 18.1984 56.5421 12.8597C56.5421 12.6825 56.5385 12.5102 56.5311 12.3367C57.3144 11.7718 57.9938 11.0593 58.5314 10.2482L58.5326 10.247Z" fill="black" fill-opacity="0.6"/>
</g>
<g clip-path="url(#clip2_6_1309)">
<path fill-rule="evenodd" clip-rule="evenodd" d="M74.8317 10.5093C75.9782 10.5093 76.9086 9.57881 76.9086 8.43237C76.9086 7.28592 75.9782 6.35547 74.8317 6.35547C73.6853 6.35547 72.7548 7.28592 72.7548 8.43237C72.7548 9.57881 73.6853 10.5093 74.8317 10.5093ZM72.7548 24.3555V11.894H76.9086V24.3555H72.7548ZM79.6785 11.894H83.5097V13.8574H83.5651C84.0981 12.9006 85.4024 11.894 87.3478 11.894C91.3922 11.894 92.1399 14.4112 92.1399 17.6858V24.3555H88.1453V18.4432C88.1453 17.0337 88.1162 15.2185 86.0684 15.2185C83.9888 15.2185 83.6703 16.754 83.6703 18.3408V24.3555H79.6785V11.894Z" fill="black" fill-opacity="0.6"/>
</g>
<g clip-path="url(#clip3_6_1309)">
<path d="M124.754 15.3545C124.754 10.3845 120.725 6.35547 115.755 6.35547C110.785 6.35547 106.756 10.3845 106.756 15.3545C106.756 19.8465 110.047 23.5695 114.349 24.2445V17.9555H112.064V15.3545H114.349V13.3715C114.349 11.1165 115.693 9.87047 117.748 9.87047C118.733 9.87047 119.763 10.0465 119.763 10.0465V12.2615H118.628C117.51 12.2615 117.161 12.9555 117.161 13.6665V15.3545H119.657L119.258 17.9555H117.161V24.2445C121.463 23.5695 124.754 19.8465 124.754 15.3545Z" fill="black" fill-opacity="0.6"/>
</g>
<g clip-path="url(#clip4_6_1309)">
<path d="M147.755 8.42578C138.91 8.42578 138.755 9.21278 138.755 15.3558C138.755 21.4988 138.91 22.2858 147.755 22.2858C156.6 22.2858 156.755 21.4988 156.755 15.3558C156.755 9.21278 156.6 8.42578 147.755 8.42578ZM150.639 15.6568L146.598 17.5428C146.244 17.7068 145.954 17.5228 145.954 17.1328V13.5798C145.954 13.1898 146.244 13.0058 146.598 13.1698L150.639 15.0558C150.993 15.2218 150.993 15.4918 150.639 15.6568Z" fill="black" fill-opacity="0.6"/>
</g>
<defs>
<clipPath id="clip0_6_1309">
<rect width="18" height="18" fill="white" transform="translate(6.75482 6.35547)"/>
</clipPath>
<clipPath id="clip1_6_1309">
<rect width="20" height="16" fill="white" transform="translate(38.7548 8.35547)"/>
</clipPath>
<clipPath id="clip2_6_1309">
<rect width="20" height="18" fill="white" transform="translate(72.7548 6.35547)"/>
</clipPath>
<clipPath id="clip3_6_1309">
<rect width="18" height="18" fill="white" transform="translate(106.755 6.35547)"/>
</clipPath>
<clipPath id="clip4_6_1309">
<rect width="18" height="18" fill="white" transform="translate(138.755 6.35547)"/>
</clipPath>
</defs>
</svg>
