<svg width="33" height="33" viewBox="0 0 33 33" fill="none" xmlns="http://www.w3.org/2000/svg">
<rect x="0.754822" y="0.856445" width="32" height="32" rx="5" fill="#FCE9E8"/>
<g clip-path="url(#clip0_6_992)">
<path d="M15.5048 23.8814H9.29233C8.84233 23.8814 8.46733 23.5064 8.46733 23.0564V15.2814C8.46733 14.7939 8.71733 14.5189 9.19233 14.5189H9.56733V13.1189H8.79233C7.75483 13.1189 6.91733 13.9564 6.91733 14.9939V23.4314C6.91733 24.4689 7.75483 25.3064 8.79233 25.3064H15.5048V23.8814ZM24.7298 13.1064H23.9548V14.5064H24.3673C24.8173 14.5064 25.0423 14.7689 25.0423 15.1814V23.0689C25.0423 23.5189 24.6798 23.8939 24.2173 23.8939H18.0048V25.2939H24.7298C25.7673 25.2939 26.6048 24.4564 26.6048 23.4189V14.9814C26.6048 13.9439 25.7673 13.1064 24.7298 13.1064Z" fill="#EA4E43"/>
<path d="M23.1673 8.73145C21.0048 9.01895 18.4173 9.86895 16.7673 10.8814C15.1048 9.86895 12.5173 9.01895 10.3673 8.73145V21.5439C12.1423 21.7564 13.9798 22.1689 15.8423 22.8939L16.7798 23.3064L17.7173 22.8939C19.5798 22.1689 21.4173 21.7439 23.1923 21.5439V8.73145H23.1673ZM12.2298 20.1439V10.8939C13.5673 11.1314 15.1173 11.7314 15.8298 12.3064V21.1564C14.7923 20.7314 13.3423 20.3439 12.2298 20.1439ZM21.2923 20.1439C20.1923 20.3439 18.7298 20.7314 17.6923 21.1564V12.3064C18.3923 11.7189 19.9548 11.1314 21.2923 10.8939V20.1439Z" fill="#EA4E43"/>
</g>
<defs>
<clipPath id="clip0_6_992">
<rect x="6.75482" y="6.85645" width="20" height="20" rx="6" fill="white"/>
</clipPath>
</defs>
</svg>
