<svg width="33" height="33" viewBox="0 0 33 33" fill="none" xmlns="http://www.w3.org/2000/svg">
<rect x="0.754822" y="0.856445" width="32" height="32" rx="5" fill="#E2ECF3"/>
<g clip-path="url(#clip0_6_1002)">
<path fill-rule="evenodd" clip-rule="evenodd" d="M26.4298 10.5936L23.9173 13.1436L23.9048 13.1185C22.6673 14.3811 21.7423 14.6685 19.9423 14.4811L18.6548 15.7811C19.1048 16.606 18.9923 17.6686 18.3048 18.3686C17.4673 19.2311 16.0798 19.2311 15.2173 18.3936C14.3548 17.556 14.3423 16.1686 15.1923 15.306C15.8798 14.606 16.9298 14.4811 17.7673 14.9185L19.0548 13.6185C18.8423 11.8185 19.1048 10.8936 20.3423 9.63105L22.8548 7.08105L23.5548 9.95605L26.4298 10.5936ZM20.4924 15.806H20.8299V15.831C21.2924 15.831 21.7049 15.781 22.0924 15.6935C22.1799 16.081 22.2299 16.4685 22.2299 16.881C22.2299 19.906 19.7799 22.356 16.7549 22.356C13.7299 22.356 11.2799 19.906 11.2799 16.881C11.2799 13.856 13.7299 11.406 16.7549 11.406C17.1299 11.406 17.5049 11.4435 17.8549 11.5185C17.7549 12.006 17.7174 12.531 17.7549 13.1185C17.4299 13.031 17.1049 12.9685 16.7549 12.9685C14.6049 12.9685 12.8549 14.7185 12.8549 16.8685C12.8549 19.0185 14.6049 20.7685 16.7549 20.7685C18.9049 20.7685 20.6549 19.0185 20.6549 16.8685C20.6549 16.4935 20.5924 16.1435 20.4924 15.806ZM23.9548 14.7685C24.2423 14.556 24.5173 14.306 24.8048 14.0185L25.4548 13.356C25.8798 14.4436 26.1298 15.6185 26.1298 16.856C26.1298 22.031 21.9298 26.2311 16.7548 26.2311C11.5798 26.2311 7.37982 22.031 7.37982 16.856C7.37982 11.681 11.5798 7.48105 16.7548 7.48105C17.9298 7.48105 19.0548 7.70605 20.0923 8.10605L19.4548 8.75605C19.1673 9.04355 18.9298 9.33105 18.7173 9.61855C18.0923 9.45605 17.4298 9.35605 16.7548 9.35605C12.6173 9.35605 9.25482 12.7185 9.25482 16.856C9.25482 20.9936 12.6173 24.356 16.7548 24.356C20.8923 24.356 24.2548 20.9936 24.2548 16.856C24.2548 16.131 24.1423 15.431 23.9548 14.7685Z" fill="#0A85D1"/>
</g>
<defs>
<clipPath id="clip0_6_1002">
<rect x="6.75482" y="6.85645" width="20" height="20" rx="6" fill="white"/>
</clipPath>
</defs>
</svg>
