<svg width="33" height="33" viewBox="0 0 33 33" fill="none" xmlns="http://www.w3.org/2000/svg">
<rect x="0.754822" y="0.856445" width="32" height="32" rx="5" fill="#FFF6D6"/>
<g clip-path="url(#clip0_6_1011)">
<path d="M23.1711 12.7794L18.1385 8.70186C17.8446 8.45696 17.465 8.32227 17.0732 8.32227H11.3916C10.4609 8.32227 9.714 9.0692 9.714 9.99982V23.7876C9.714 24.7182 10.4732 25.4651 11.3916 25.4651H22.1181C23.0487 25.4651 23.7956 24.7182 23.7956 23.7876V14.0896C23.7956 13.5876 23.563 13.0978 23.1711 12.7794ZM17.8201 9.99982L22.0569 13.6978C22.2283 13.8447 22.1303 14.1263 21.8977 14.1263H18.2732C18.0283 14.1263 17.8201 13.9304 17.8201 13.6733V9.99982ZM21.4324 23.7753H12.065C11.7834 23.7753 11.5507 23.5427 11.5507 23.2488V10.5141C11.5507 10.2325 11.7834 9.99982 12.065 9.99982H16.2895V14.1386C16.2895 14.9835 16.9752 15.6692 17.8201 15.6692H21.9467V23.261C21.9467 23.5427 21.714 23.7753 21.4324 23.7753Z" fill="#FAA700"/>
<path d="M13.9997 17.9717H19.5099ZM13.9997 20.8982H19.5099Z" fill="#FAA700"/>
<path d="M13.9997 17.9717H19.5099M13.9997 20.8982H19.5099" stroke="#FAA700" stroke-width="0.74449" stroke-linecap="round" stroke-linejoin="round"/>
</g>
<defs>
<clipPath id="clip0_6_1011">
<rect x="6.75482" y="6.85645" width="20" height="20" rx="6" fill="white"/>
</clipPath>
</defs>
</svg>
