<svg width="33" height="33" viewBox="0 0 33 33" fill="none" xmlns="http://www.w3.org/2000/svg">
<rect x="0.754822" y="0.856445" width="32" height="32" rx="5" fill="#F0E1F9"/>
<g clip-path="url(#clip0_6_975)">
<path d="M15.4684 12.0465C15.8476 11.9152 15.8476 11.6819 15.4684 11.5361L13.4122 10.7486C13.0476 10.6173 12.6247 10.1944 12.4788 9.81524L11.6913 7.75898C11.5601 7.37982 11.3267 7.37982 11.1809 7.75898L10.3934 9.81524C10.2622 10.1798 9.83924 10.6027 9.46007 10.7486L7.40382 11.5361C7.02465 11.6673 7.02465 11.9007 7.40382 12.0465L9.46007 12.834C9.82465 12.9652 10.2476 13.3882 10.3934 13.7673L11.1809 15.8235C11.3122 16.2027 11.5455 16.2027 11.6913 15.8235L12.4788 13.7673C12.6101 13.4027 13.033 12.9798 13.4122 12.834L15.4684 12.0465Z" fill="#9D34DA"/>
<path d="M25.4871 19.2503C26.6538 18.9586 26.6538 18.4773 25.4871 18.1857L22.9059 17.544C21.7392 17.2523 20.5434 16.0565 20.2517 14.8898L19.6101 12.3086C19.3184 11.1419 18.8371 11.1419 18.5455 12.3086L17.9038 14.8898C17.6121 16.0565 16.4163 17.2523 15.2496 17.544L12.6684 18.1857C11.5017 18.4773 11.5017 18.9586 12.6684 19.2503L15.2496 19.8919C16.4163 20.1836 17.6121 21.3794 17.9038 22.5461L18.5455 25.1273C18.8371 26.294 19.3184 26.294 19.6101 25.1273L20.2517 22.5461C20.5434 21.3794 21.7392 20.1836 22.9059 19.8919L25.4871 19.2503Z" fill="#9D34DA"/>
</g>
<defs>
<clipPath id="clip0_6_975">
<rect x="6.75482" y="6.85645" width="20" height="20" rx="6" fill="white"/>
</clipPath>
</defs>
</svg>
