<svg width="27" height="27" viewBox="0 0 27 27" fill="none" xmlns="http://www.w3.org/2000/svg">
<path d="M19.3367 14.123L24.6179 19.4043L19.3367 24.6855L17.6142 22.963L19.9542 20.623H17.0536C15.4854 20.623 14.3276 20.0299 13.4176 18.7502L12.3167 17.2105L13.8158 15.1143L15.4001 17.3365C15.8551 17.9743 16.2695 18.1855 17.0536 18.1855H19.9542L17.6142 15.8455L19.3367 14.123ZM17.0536 9.24805H19.9542L17.6142 11.588L19.3367 13.3105L24.6179 8.0293L19.3367 2.74805L17.6142 4.47055L19.9542 6.81055H17.0536C15.4854 6.81055 14.3276 7.40367 13.4176 8.68336L7.23857 17.3365C6.78357 17.9743 6.3692 18.1855 5.58513 18.1855H3.19638V20.623H5.58513C7.15326 20.623 8.31107 20.0299 9.22107 18.7502L15.4001 10.0971C15.8551 9.4593 16.2695 9.24805 17.0536 9.24805ZM7.23451 10.0971L8.81888 12.3193L10.3179 10.223L9.21701 8.68336C8.30295 7.40773 7.1492 6.81055 5.58107 6.81055H3.19232V9.24805H5.58107C6.36107 9.24805 6.77951 9.46336 7.23451 10.0971Z" fill="#0A85D1"/>
</svg>
