<svg width="27" height="27" viewBox="0 0 27 27" fill="none" xmlns="http://www.w3.org/2000/svg">
<g clip-path="url(#clip0_6_1093)">
<path d="M13.7124 21.5613C14.9846 21.5613 16.1824 21.4087 17.3064 21.1045C18.3866 20.8193 19.4323 20.4165 20.4247 19.9033C21.3233 19.434 22.1746 18.8791 22.9666 18.2463C23.6573 17.7013 24.2991 17.0969 24.8846 16.4401C25.4124 15.8326 25.8119 15.2701 26.0858 14.7553C26.3648 14.2345 26.5044 13.815 26.5044 13.4987C26.5044 13.1823 26.3648 12.7663 26.0858 12.2507C25.8119 11.7359 25.4124 11.1777 24.8846 10.5754C24.301 9.91387 23.6591 9.3062 22.9666 8.75973C22.1734 8.12653 21.3187 7.57458 20.4152 7.1122C19.4272 6.59426 18.3845 6.18818 17.3064 5.90147C16.1336 5.59104 14.9247 5.43774 13.7115 5.4456C12.4635 5.4456 11.2788 5.59727 10.1556 5.90147C9.03756 6.20567 8.00449 6.60953 7.05549 7.1122C6.15154 7.57896 5.29401 8.13062 4.49449 8.75973C3.79648 9.30626 3.14854 9.91388 2.55836 10.5754C2.03143 11.1777 1.62496 11.735 1.33983 12.2507C1.06076 12.7663 0.919495 13.1823 0.919495 13.4987C0.919495 13.815 1.05989 14.2336 1.33896 14.7553C1.62496 15.271 2.03056 15.8326 2.55836 16.4401C3.09223 17.0425 3.73443 17.6448 4.48583 18.2463C5.28629 18.8764 6.14332 19.4311 7.04596 19.9033C8.03292 20.4145 9.07234 20.8172 10.146 21.1045C11.2692 21.4087 12.4583 21.5613 13.7115 21.5613H13.7124ZM13.7124 19.7638C12.7192 19.7638 11.7667 19.6425 10.8541 19.4007C9.97243 19.1679 9.11756 18.8435 8.3035 18.4326C7.5495 18.054 6.82725 17.6152 6.14376 17.1205C5.55841 16.6885 5.00465 16.2152 4.48669 15.7043C4.02129 15.2329 3.66076 14.8013 3.40683 14.4104C3.15809 14.0187 3.03416 13.7145 3.03416 13.4978C3.03416 13.3175 3.15809 13.0419 3.40683 12.6693C3.66076 12.2966 4.02129 11.8745 4.48669 11.4031C5.60059 10.2757 6.8895 9.33595 8.3035 8.6202C9.11634 8.19712 9.97118 7.86018 10.8541 7.61487C11.785 7.35803 12.7467 7.22973 13.7124 7.23353C14.7056 7.23353 15.6554 7.36007 16.5611 7.61487C17.4676 7.8688 18.3178 8.2042 19.1126 8.6202C19.9064 9.03013 20.6266 9.47647 21.2723 9.96093C21.8641 10.3984 22.4213 10.8808 22.9389 11.4039C23.4043 11.8754 23.7614 12.2975 24.0092 12.6693C24.264 13.0419 24.3906 13.3193 24.3906 13.4987C24.3906 13.7153 24.264 14.0195 24.0092 14.4113C23.7614 14.8013 23.4043 15.2337 22.9389 15.7052C21.8161 16.8115 20.5245 17.7321 19.1126 18.4326C18.3178 18.8365 17.4676 19.1589 16.5611 19.4007C15.6554 19.6433 14.7056 19.7647 13.7124 19.7647V19.7638ZM13.721 18.5158C14.3897 18.5203 15.0522 18.3876 15.6676 18.1258C16.265 17.8663 16.8083 17.4968 17.2692 17.0364C17.7259 16.5746 18.0921 16.0314 18.349 15.4348C18.609 14.8264 18.7399 14.1816 18.7399 13.4987C18.7432 12.8393 18.6148 12.1858 18.3623 11.5767C18.1097 10.9676 17.7381 10.415 17.2692 9.9514C16.8108 9.49288 16.2666 9.12917 15.6676 8.88107C15.0526 8.61908 14.3904 8.48605 13.7219 8.4902C13.0444 8.48397 12.3727 8.6167 11.7485 8.8802C11.1494 9.12856 10.6052 9.49256 10.1469 9.9514C9.68594 10.4066 9.31877 10.9478 9.06616 11.5443C8.80955 12.164 8.67988 12.8289 8.68483 13.4995C8.68483 14.1825 8.81483 14.8273 9.07483 15.4357C9.3357 16.038 9.69623 16.571 10.1556 17.0373C10.6149 17.4966 11.1453 17.8597 11.7476 18.1267C12.3552 18.3867 13.013 18.5158 13.721 18.5158ZM13.7124 15.1271C13.2591 15.1271 12.8743 14.9668 12.558 14.6435C12.4058 14.4945 12.2852 14.3163 12.2036 14.1196C12.122 13.9229 12.081 13.7117 12.083 13.4987C12.0798 13.2855 12.1202 13.0739 12.2019 12.877C12.2836 12.6801 12.4048 12.5021 12.558 12.3538C12.8743 12.0366 13.26 11.8789 13.7124 11.8789C13.9257 11.8755 14.1374 11.9159 14.3345 11.9976C14.5315 12.0793 14.7097 12.2005 14.8581 12.3538C15.1805 12.6701 15.3417 13.0515 15.3417 13.4978C15.3417 13.9398 15.1805 14.3211 14.8581 14.6435C14.7111 14.7992 14.5333 14.9227 14.3361 15.0061C14.1389 15.0895 13.9265 15.131 13.7124 15.128V15.1271Z" fill="#0A85D1"/>
</g>
<defs>
<clipPath id="clip0_6_1093">
<rect width="26" height="26" fill="white" transform="translate(0.754822 0.277344)"/>
</clipPath>
</defs>
</svg>
