<svg width="17" height="17" viewBox="0 0 17 17" fill="none" xmlns="http://www.w3.org/2000/svg">
<path d="M8.89197 15.0087C12.6754 15.0087 15.8093 11.8814 15.8093 8.09124C15.8093 4.30775 12.6754 1.17383 8.88527 1.17383C5.10178 1.17383 1.97455 4.30775 1.97455 8.09124C1.97455 11.8814 5.10848 15.0087 8.89197 15.0087ZM4.86071 3.87918C5.53035 3.24302 6.34062 2.75419 7.24464 2.48632C6.76919 2.96177 6.36741 3.63142 6.06607 4.44838C5.59731 4.30105 5.19553 4.10686 4.86071 3.87918ZM10.546 2.49302C11.4433 2.76088 12.2536 3.24302 12.9165 3.87918C12.5884 4.11356 12.1866 4.30105 11.7179 4.45508C11.4165 3.63142 11.0147 2.96177 10.546 2.49302ZM9.36071 2.70731C9.91651 2.97517 10.4254 3.69838 10.7871 4.68276C10.3451 4.76311 9.86963 4.80999 9.36071 4.83008V2.70731ZM6.99687 4.68276C7.36518 3.69838 7.86741 2.97517 8.42321 2.70731V4.83008C7.91429 4.80999 7.43883 4.76311 6.99687 4.68276ZM3.06607 7.62249C3.15982 6.48409 3.58839 5.43276 4.24464 4.56892C4.65312 4.87025 5.18214 5.13142 5.79821 5.32561C5.6241 6.02204 5.51026 6.79883 5.47678 7.62249H3.06607ZM12.3072 7.62249C12.2737 6.79883 12.1598 6.02204 11.9857 5.32561C12.6018 5.13142 13.1308 4.87695 13.5325 4.56892C14.1955 5.43276 14.6241 6.48409 14.7179 7.62249H12.3072ZM6.43437 7.62249C6.46785 6.89257 6.5683 6.19615 6.72232 5.56669C7.25803 5.67383 7.82722 5.74079 8.42321 5.76758V7.62249H6.43437ZM9.36071 7.62249V5.76758C9.9567 5.74079 10.5259 5.67383 11.0616 5.56669C11.2156 6.19615 11.3161 6.89257 11.3496 7.62249H9.36071ZM3.06607 8.55999H5.47678C5.51026 9.39704 5.6241 10.1805 5.79821 10.8836C5.18883 11.0778 4.66651 11.3323 4.26473 11.6336C3.59509 10.7631 3.15982 9.70508 3.06607 8.55999ZM6.43437 8.55999H8.42321V10.4484C7.83392 10.4752 7.25803 10.5421 6.72902 10.6426C6.5683 10.0064 6.46115 9.2966 6.43437 8.55999ZM9.36071 10.4484V8.55999H11.3496C11.3228 9.2966 11.2156 10.0064 11.0549 10.6426C10.5259 10.5421 9.9567 10.4752 9.36071 10.4484ZM11.9857 10.8836C12.1665 10.1805 12.2737 9.39704 12.3072 8.55999H14.7179C14.6241 9.70508 14.1889 10.7631 13.5192 11.6336C13.1175 11.3323 12.5951 11.0778 11.9857 10.8836ZM9.36071 11.3859C9.86294 11.406 10.3384 11.4528 10.7737 11.5332C10.412 12.4975 9.90982 13.2141 9.36071 13.4752V11.3859ZM7.01026 11.5332C7.44553 11.4528 7.92098 11.406 8.42321 11.3859V13.4752C7.8741 13.2141 7.37187 12.4975 7.01026 11.5332ZM4.8808 12.3234C5.20893 12.0957 5.61071 11.9082 6.07277 11.7609C6.3741 12.5645 6.76919 13.2207 7.23125 13.6895C6.34731 13.4216 5.54375 12.9462 4.8808 12.3234ZM11.7112 11.7609C12.1732 11.9082 12.5751 12.0957 12.9032 12.3234C12.2402 12.9462 11.4366 13.4216 10.5527 13.6895C11.0147 13.2207 11.4098 12.5645 11.7112 11.7609Z" fill="#121212"/>
</svg>
