<svg width="27" height="27" viewBox="0 0 27 27" fill="none" xmlns="http://www.w3.org/2000/svg">
<path d="M14.3142 22.7276C15.6417 22.7276 16.8009 22.5774 17.792 22.2771C18.789 21.9828 19.5638 21.5714 20.1164 21.0428C20.675 20.5143 20.9543 19.9016 20.9543 19.2049C20.9543 18.7423 20.8762 18.361 20.7201 18.0606C20.5699 17.7543 20.3957 17.4901 20.1975 17.2678C20.0053 17.0455 19.8311 16.8323 19.6749 16.6281C19.5248 16.4179 19.4497 16.1807 19.4497 15.9164C19.4497 15.6701 19.5758 15.4508 19.8281 15.2587C20.0804 15.0604 20.4047 14.8652 20.8012 14.673C21.2036 14.4809 21.627 14.2706 22.0715 14.0424C22.516 13.8081 22.9364 13.5288 23.3328 13.2045C23.7352 12.8801 24.0626 12.4927 24.3149 12.0422C24.5671 11.5857 24.6933 11.0392 24.6933 10.4025C24.6933 9.4595 24.459 8.60358 23.9905 7.83476C23.5281 7.06595 22.8673 6.40525 22.0084 5.85266C21.1555 5.30007 20.1344 4.87663 18.9452 4.58232C17.7559 4.28199 16.4345 4.13184 14.9809 4.13184C13.101 4.13184 11.3861 4.36007 9.83646 4.81656C8.29284 5.26704 6.96243 5.90972 5.84524 6.74461C4.73406 7.57949 3.87514 8.57656 3.2685 9.73579C2.66786 10.889 2.36754 12.1684 2.36754 13.5739C2.36754 14.9433 2.65284 16.1896 3.22345 17.3128C3.79406 18.43 4.60792 19.3911 5.66504 20.1959C6.72817 21.0068 7.98952 21.6314 9.44906 22.0699C10.9086 22.5084 12.5303 22.7276 14.3142 22.7276ZM14.3142 20.8265C12.8006 20.8265 11.4251 20.6524 10.1879 20.304C8.95654 19.9617 7.89942 19.4721 7.01648 18.8354C6.13355 18.1927 5.45182 17.427 4.9713 16.538C4.4968 15.6491 4.25955 14.661 4.25955 13.5739C4.25955 12.4387 4.51182 11.4086 5.01635 10.4836C5.5269 9.5586 6.25367 8.76275 7.19667 8.09605C8.13967 7.42934 9.2689 6.91879 10.5843 6.56442C11.8997 6.20404 13.3652 6.02385 14.9809 6.02385C16.5546 6.02385 17.9271 6.20704 19.0983 6.57343C20.2696 6.93982 21.1766 7.45336 21.8192 8.11406C22.4679 8.76876 22.7923 9.53157 22.7923 10.4025C22.7923 10.907 22.6661 11.3335 22.4138 11.6818C22.1615 12.0242 21.8342 12.3185 21.4318 12.5648C21.0354 12.8111 20.6119 13.0393 20.1615 13.2495C19.717 13.4538 19.2935 13.67 18.8911 13.8982C18.4887 14.1264 18.1613 14.3937 17.909 14.7001C17.6568 15.0064 17.5307 15.3878 17.5307 15.8443C17.5307 16.2347 17.6058 16.5651 17.7559 16.8354C17.9121 17.1056 18.0893 17.3489 18.2875 17.5651C18.4857 17.7813 18.6599 17.9976 18.81 18.2138C18.9661 18.4241 19.0442 18.6673 19.0442 18.9435C19.0442 19.5142 18.6118 19.9706 17.7469 20.313C16.888 20.6554 15.7437 20.8265 14.3142 20.8265ZM13.5394 18.7634C14.0139 18.7634 14.4434 18.6523 14.8278 18.43C15.2182 18.2018 15.5245 17.8955 15.7468 17.511C15.975 17.1267 16.0891 16.6942 16.0891 16.2136C16.0891 15.7512 15.972 15.3277 15.7378 14.9433C15.5095 14.5589 15.2032 14.2526 14.8188 14.0243C14.4343 13.7901 14.0079 13.673 13.5394 13.673C13.0769 13.673 12.6534 13.7901 12.2691 14.0243C11.8847 14.2526 11.5754 14.5589 11.3411 14.9433C11.1128 15.3277 10.9987 15.7512 10.9987 16.2136C10.9987 16.6821 11.1128 17.1116 11.3411 17.5021C11.5754 17.8864 11.8847 18.1927 12.2691 18.421C12.6534 18.6492 13.0769 18.7634 13.5394 18.7634ZM13.5394 17.5832C13.2872 17.5832 13.0589 17.523 12.8547 17.4029C12.6505 17.2828 12.4853 17.1176 12.3591 16.9074C12.239 16.6971 12.179 16.4659 12.179 16.2136C12.179 15.9314 12.242 15.6911 12.3682 15.4929C12.4943 15.2947 12.6595 15.1415 12.8637 15.0334C13.0679 14.9193 13.2872 14.8622 13.5214 14.8622C13.7616 14.8563 13.9869 14.9073 14.1971 15.0154C14.4073 15.1235 14.5785 15.2767 14.7106 15.4749C14.8428 15.6731 14.9089 15.9193 14.9089 16.2136C14.9089 16.4659 14.8488 16.6971 14.7287 16.9074C14.6085 17.1176 14.4434 17.2828 14.2331 17.4029C14.0289 17.523 13.7977 17.5832 13.5394 17.5832ZM7.27776 14.7902C7.6922 14.7902 8.04357 14.643 8.33188 14.3487C8.62019 14.0483 8.76433 13.694 8.76433 13.2855C8.76433 12.8711 8.62019 12.5198 8.33188 12.2314C8.04357 11.9371 7.6922 11.7899 7.27776 11.7899C6.87533 11.7899 6.52696 11.9371 6.23265 12.2314C5.93834 12.5198 5.79118 12.8711 5.79118 13.2855C5.79118 13.694 5.93834 14.0483 6.23265 14.3487C6.52696 14.643 6.87533 14.7902 7.27776 14.7902ZM10.5212 11.9341C11.0377 11.9341 11.4762 11.754 11.8366 11.3936C12.203 11.0332 12.3862 10.5887 12.3862 10.0601C12.3862 9.54959 12.203 9.11713 11.8366 8.76275C11.4762 8.40237 11.0377 8.22218 10.5212 8.22218C9.99866 8.22218 9.55415 8.40237 9.1878 8.76275C8.82741 9.11713 8.64722 9.54959 8.64722 10.0601C8.64722 10.5887 8.82741 11.0332 9.1878 11.3936C9.55415 11.754 9.99866 11.9341 10.5212 11.9341ZM15.026 10.5016C15.4405 10.5016 15.7918 10.3544 16.0801 10.0601C16.3745 9.76582 16.5216 9.41145 16.5216 8.99701C16.5216 8.57656 16.3745 8.22218 16.0801 7.93387C15.7918 7.63956 15.4405 7.4924 15.026 7.4924C14.6116 7.4924 14.2542 7.63956 13.9539 7.93387C13.6595 8.22819 13.5124 8.58257 13.5124 8.99701C13.5124 9.41145 13.6595 9.76582 13.9539 10.0601C14.2542 10.3544 14.6116 10.5016 15.026 10.5016ZM19.0713 11.0692C19.4076 11.0692 19.693 10.9521 19.9272 10.7178C20.1674 10.4776 20.2876 10.1863 20.2876 9.8439C20.2876 9.51355 20.1674 9.22825 19.9272 8.98799C19.693 8.74774 19.4076 8.62761 19.0713 8.62761C18.7349 8.62761 18.4436 8.74774 18.1974 8.98799C17.9571 9.22825 17.837 9.51355 17.837 9.8439C17.837 10.1863 17.9571 10.4776 18.1974 10.7178C18.4436 10.9521 18.7349 11.0692 19.0713 11.0692Z" fill="#0A85D1"/>
</svg>
