<svg width="27" height="27" viewBox="0 0 27 27" fill="none" xmlns="http://www.w3.org/2000/svg">
<g clip-path="url(#clip0_6_1244)">
<path d="M3.79242 26.5036C4.61534 26.5058 5.30331 25.8343 5.3061 24.9864L5.32794 18.3658C5.70235 18.2546 6.57604 17.9825 7.79794 17.9858C12.1992 17.9976 15.4709 20.3005 19.8722 20.3123C21.7425 20.3172 22.8656 20.0335 23.8521 19.5748C24.8012 19.1284 25.2777 18.2944 25.2817 17.1099L25.3214 5.05296C25.3248 4.00562 24.604 3.29299 23.5566 3.29019C22.6963 3.28789 21.6227 3.69649 19.8397 3.69173C15.5755 3.68035 12.1667 1.37705 7.76545 1.3653C5.95754 1.36047 4.9218 1.61955 3.81044 2.12778C2.88638 2.54924 2.36057 3.1962 2.35683 4.33082L2.28877 24.9783C2.28601 25.8137 2.96951 26.5013 3.79242 26.5036ZM5.48609 11.9948L5.49801 8.37898C5.79819 8.09301 6.55991 7.74592 7.84416 7.74936C8.20574 7.75032 8.97861 7.80226 9.55187 7.89106L9.56276 4.58696C11.0334 4.79038 12.4159 5.23047 13.8359 5.65818L13.825 8.94983C15.1951 9.40235 16.7524 9.78056 18.0985 9.94627L18.1094 6.64213C18.6329 6.70587 19.1688 6.74471 19.7174 6.74617C20.6775 6.74874 21.5256 6.66372 22.1621 6.49086L22.1513 9.78247C21.6146 9.93067 20.729 10.053 19.7066 10.0503C19.3325 10.0493 18.7839 10.0354 18.0985 9.94627L18.0865 13.5621C18.8094 13.6513 19.4453 13.6654 19.9191 13.6667C20.8792 13.6693 21.5527 13.5713 22.1393 13.4108L22.1287 16.6027C21.8536 16.8887 21.0544 17.2232 19.7577 17.2198C19.1966 17.2183 18.6483 17.1545 18.075 17.0657L18.0865 13.5621C16.5536 13.346 15.2331 13.0183 13.8131 12.5657L13.8019 15.982C12.4566 15.5793 11.0614 15.1892 9.52836 15.0229L9.53994 11.5069C9.06635 11.4433 8.56787 11.3672 7.83224 11.3652C6.54799 11.3617 5.78627 11.7088 5.48609 11.9948ZM9.53994 11.5069C11.0978 11.7355 12.3059 12.1252 13.8131 12.5657L13.825 8.94983C12.405 8.53457 11.1221 8.11969 9.55187 7.89106L9.53994 11.5069Z" fill="#0A85D1"/>
</g>
<defs>
<clipPath id="clip0_6_1244">
<rect width="26" height="26" fill="white" transform="translate(0.754822 0.925781)"/>
</clipPath>
</defs>
</svg>
