<svg width="27" height="27" viewBox="0 0 27 27" fill="none" xmlns="http://www.w3.org/2000/svg">
<g clip-path="url(#clip0_6_1252)">
<path d="M13.5688 26.5915C20.5672 26.6101 26.3296 20.8699 26.3527 13.8716C26.3757 6.88531 20.6391 1.1144 13.6528 1.09575C6.65446 1.07706 0.891996 6.81728 0.868966 13.8035C0.845896 20.8019 6.58248 26.5728 13.5688 26.5915ZM12.2636 19.8912C11.7206 19.8898 11.2991 19.6473 10.9145 19.1757L8.09011 15.7896C7.8137 15.451 7.7061 15.1491 7.70725 14.7992C7.70972 14.0511 8.31497 13.4614 9.05101 13.4634C9.48537 13.4646 9.8227 13.6344 10.1472 14.0214L12.2382 16.6212L16.9686 9.15278C17.284 8.64684 17.683 8.39451 18.1536 8.39577C18.8776 8.3977 19.5395 8.93038 19.537 9.67851C19.536 9.98011 19.4143 10.3056 19.196 10.6187L13.5691 19.1708C13.2539 19.6285 12.7824 19.8927 12.2636 19.8912Z" fill="#F8792A"/>
</g>
<defs>
<clipPath id="clip0_6_1252">
<rect width="26" height="26" fill="white" transform="translate(0.754822 0.925781)"/>
</clipPath>
</defs>
</svg>
