<svg width="27" height="27" viewBox="0 0 27 27" fill="none" xmlns="http://www.w3.org/2000/svg">
<g clip-path="url(#clip0_6_1260)">
<mask id="mask0_6_1260" style="mask-type:luminance" maskUnits="userSpaceOnUse" x="1" y="1" width="26" height="26">
<path d="M22.2147 1.33594H5.00544C2.833 1.33594 1.07189 3.09705 1.07189 5.26948V22.4788C1.07189 24.6512 2.833 26.4123 5.00544 26.4123H22.2147C24.3871 26.4123 26.1483 24.6512 26.1483 22.4788V5.26948C26.1483 3.09705 24.3871 1.33594 22.2147 1.33594Z" fill="white"/>
</mask>
<g mask="url(#mask0_6_1260)">
<path d="M10.8093 8.59455H16.4018C16.9948 8.59455 17.3415 8.22047 17.3415 7.60008V6.64217C17.3415 6.01266 16.9948 5.64774 16.4018 5.64774H15.754C15.6719 4.5347 14.7505 3.64062 13.6101 3.64062C12.4697 3.64062 11.5482 4.5347 11.4661 5.64774H10.8093C10.2253 5.64774 9.87866 6.01266 9.87866 6.64217V7.60008C9.87866 8.22047 10.2253 8.59455 10.8093 8.59455ZM13.6101 6.55093C13.1539 6.55093 12.7799 6.16776 12.7799 5.72985C12.7799 5.27369 13.1539 4.90875 13.6101 4.90875C14.0662 4.90875 14.4312 5.27369 14.4312 5.72985C14.4312 6.16776 14.0662 6.55093 13.6101 6.55093ZM8.77474 26.2753H18.4454C20.4707 26.2753 21.6568 25.0802 21.6568 23.0275V9.26966C21.6568 7.23518 20.489 6.01266 18.5001 6.01266H18.3086C18.3906 6.19513 18.4271 6.41408 18.4271 6.64217V7.52709C18.4271 7.80079 18.3906 8.04716 18.2994 8.26613H18.4363C19.0658 8.26613 19.4034 8.66754 19.4034 9.28793V23.0001C19.4034 23.6479 19.0293 24.031 18.3542 24.031H8.85686C8.18175 24.031 7.80773 23.6479 7.80773 23.0001V9.28793C7.80773 8.66754 8.15442 8.26613 8.78387 8.26613H8.92072C8.82953 8.04716 8.793 7.80079 8.793 7.52709V6.64217C8.793 6.41408 8.82953 6.19513 8.90252 6.01266H8.72001C6.73117 6.01266 5.5634 7.23518 5.5634 9.26966V23.0275C5.5634 25.0802 6.74942 26.2753 8.77474 26.2753ZM10.0794 13.9955C10.5994 13.9955 11.01 13.585 11.01 13.0649C11.01 12.554 10.5994 12.1435 10.0794 12.1435C9.57763 12.1435 9.15795 12.5632 9.15795 13.0649C9.15795 13.5758 9.57763 13.9955 10.0794 13.9955ZM12.6978 13.8404H17.2959C17.7246 13.8404 18.0713 13.4937 18.0713 13.0649C18.0713 12.6452 17.7246 12.2895 17.2959 12.2895H12.6978C12.2689 12.2895 11.9223 12.6452 11.9223 13.0649C11.9223 13.4937 12.2689 13.8404 12.6978 13.8404ZM10.0794 17.2068C10.5994 17.2068 11.01 16.7963 11.01 16.2763C11.01 15.7654 10.5903 15.3639 10.0794 15.3639C9.5685 15.3639 9.15795 15.7745 9.15795 16.2763C9.15795 16.7963 9.5685 17.2068 10.0794 17.2068ZM12.6978 17.0609H17.2959C17.7338 17.0609 18.0713 16.7142 18.0713 16.2763C18.0713 15.8566 17.7246 15.5099 17.2959 15.5099H12.6978C12.2689 15.5099 11.9223 15.8566 11.9223 16.2763C11.9223 16.7142 12.2598 17.0609 12.6978 17.0609ZM10.0794 20.5916C10.5994 20.5916 11.01 20.1902 11.01 19.6701C11.01 19.1501 10.5994 18.7487 10.0794 18.7487C9.57763 18.7487 9.15795 19.1592 9.15795 19.6701C9.15795 20.181 9.57763 20.5916 10.0794 20.5916ZM12.6978 20.4456H17.2959C17.7246 20.4456 18.0713 20.0989 18.0713 19.6701C18.0713 19.2414 17.7246 18.9038 17.2959 18.9038H12.6978C12.2689 18.9038 11.9223 19.2414 11.9223 19.6701C11.9223 20.0989 12.2689 20.4456 12.6978 20.4456ZM5.93745 42.1841H21.2736C23.3628 42.1841 24.4941 41.0528 24.4941 38.9818V33.7633C24.4941 32.4678 24.3298 31.9204 23.7368 31.1723L20.9907 27.6052C19.823 26.0998 19.2482 25.6528 17.5422 25.6528H9.66882C7.97191 25.6528 7.39718 26.0998 6.22027 27.6052L3.47418 31.1723C2.89029 31.9296 2.71695 32.4678 2.71695 33.7633V38.9818C2.71695 41.0528 3.85735 42.1841 5.93745 42.1841ZM13.6101 36.0806C12.2051 36.0806 11.3475 35.1045 11.3475 33.9276V33.7998C11.3475 33.3619 11.0921 32.9422 10.5447 32.9422H5.53603C5.15285 32.9422 5.09811 32.6321 5.28057 32.3858L8.51931 28.1708C8.85686 27.7329 9.25828 27.5322 9.7966 27.5322H17.4145C17.9527 27.5322 18.3542 27.7329 18.6917 28.1708L21.9214 32.3858C22.1129 32.6321 22.0491 32.9422 21.675 32.9422H16.6664C16.119 32.9422 15.8635 33.3619 15.8635 33.7998V33.9276C15.8635 35.1045 15.0059 36.0806 13.6101 36.0806Z" fill="#F5A300"/>
</g>
</g>
<defs>
<clipPath id="clip0_6_1260">
<rect width="26" height="26" fill="white" transform="translate(0.754822 0.857422)"/>
</clipPath>
</defs>
</svg>
