<svg width="27" height="27" viewBox="0 0 27 27" fill="none" xmlns="http://www.w3.org/2000/svg">
<path d="M25.2233 15.5175C25.2177 14.4318 23.7429 13.4608 21.8453 13.4558L17.9771 13.4454C17.4662 13.444 17.2841 13.3341 16.9659 13.0048L10.702 6.30074C10.4929 6.08122 10.2561 5.97111 9.99155 5.9704L8.64126 5.9668C8.40409 5.96616 8.25741 6.18473 8.37517 6.43137L11.6183 13.4102L6.87254 13.9175L5.18524 10.9936C5.04915 10.7651 4.84877 10.6642 4.55682 10.6635L4.12804 10.6623C3.86347 10.6616 3.6804 10.8436 3.67956 11.0991L3.65081 19.8208C3.64996 20.0762 3.83182 20.2592 4.09639 20.2599L4.52519 20.261C4.81713 20.2619 5.0182 20.1529 5.15577 19.9343L6.86231 17.0194L11.6046 17.5521L8.31562 24.5044C8.19615 24.7595 8.34143 24.9788 8.5786 24.9795L9.92883 24.9831C10.1934 24.9838 10.431 24.875 10.6415 24.6566L16.9495 17.986C17.2699 17.6494 17.4527 17.5495 17.9636 17.5508L21.8318 17.5612C23.7294 17.5662 25.2106 16.6032 25.2233 15.5175Z" fill="#EA4E43"/>
</svg>
